<?xml version="1.0" standalone="no"?><!DOCTYPE svg PUBLIC "-//W3C//DTD SVG 1.1//EN" "http://www.w3.org/Graphics/SVG/1.1/DTD/svg11.dtd"><svg t="1596724976890" class="icon" viewBox="0 0 1024 1024" version="1.1" xmlns="http://www.w3.org/2000/svg" p-id="2333" width="16" height="16" xmlns:xlink="http://www.w3.org/1999/xlink"><defs><style type="text/css"></style></defs><path d="M510.54537 63.813375c-246.711961 0-446.711018 199.999057-446.711018 446.711017 0 246.709915 199.999057 446.707948 446.711018 446.707948 246.709915 0 446.707948-199.998033 446.707948-446.707948 0-246.711961-199.998033-446.711018-446.707948-446.711017z m164.058497 524.863982L543.330054 719.951169c-13.725606 13.758352-33.892925 16.980743-50.738591 9.866718-0.571005-0.201591-0.940418-0.704035-1.5104-0.939395-5.671163-2.281973-11.040451-5.638417-15.638165-10.234085L345.008196 588.207659c-18.020422-18.019399-18.020422-47.248094 0-65.234747 17.986653-18.020422 47.214325-18.020422 65.199955 0l54.262858 54.229089V331.160305c0-24.697495 19.998473-44.698015 44.663222-44.698014 24.698518 0 44.698015 19.999496 44.698015 44.698014v247.047606l55.134714-55.168484c18.120706-18.121729 47.517223-18.121729 65.63793 0 18.11866 18.120706 18.11866 47.518247-0.001023 65.63793z" fill="#2c2c2c" p-id="2334"></path></svg>