<?xml version="1.0" standalone="no"?><!DOCTYPE svg PUBLIC "-//W3C//DTD SVG 1.1//EN" "http://www.w3.org/Graphics/SVG/1.1/DTD/svg11.dtd"><svg t="1596727071134" class="icon" viewBox="0 0 1024 1024" version="1.1" xmlns="http://www.w3.org/2000/svg" p-id="9137" xmlns:xlink="http://www.w3.org/1999/xlink" width="16" height="16"><defs><style type="text/css"></style></defs><path d="M932.678 748.916h-265.581l57.726-74.8935c9.684-12.573 9.684-32.967 0-45.5445-9.693-12.582-25.416-12.582-35.1135 0l-100.071 129.843a19.2375 19.2375 0 0 0-1.1655 1.638 15.3 15.3 0 0 0-0.4905 0.747l-0.414 0.6615c-0.1035 0.198-0.2205 0.369-0.324 0.5715a16.3485 16.3485 0 0 0-0.6975 1.269 28.89 28.89 0 0 0-0.6525 1.3275c-0.1305 0.279-0.2475 0.558-0.378 0.8415-0.072 0.18-0.1485 0.36-0.2295 0.5355l-0.315 0.81-0.2385 0.6165c-0.09 0.2475-0.1755 0.4905-0.2565 0.747a10.485 10.485 0 0 0-0.2385 0.7245 5.6115 5.6115 0 0 0-0.2025 0.6615c-0.09 0.27-0.1755 0.54-0.2565 0.8325l-0.1485 0.5805c-0.072 0.306-0.1575 0.612-0.2295 0.927-0.045 0.18-0.081 0.3375-0.1125 0.5175l-0.2115 1.0125c-0.036 0.162-0.054 0.315-0.09 0.477a51.345 51.345 0 0 1-0.1755 1.053c-0.018 0.162-0.036 0.3285-0.063 0.4905a21.447 21.447 0 0 0-0.1395 1.044c-0.018 0.189-0.027 0.378-0.063 0.5625-0.027 0.324-0.063 0.657-0.081 0.99a10.3365 10.3365 0 0 0-0.045 0.756 8.145 8.145 0 0 0-0.045 0.81c-0.027 0.4725-0.027 0.945-0.036 1.4175l-0.009 0.171 0.009 0.18c0.009 0.468 0.009 0.936 0.036 1.4085 0 0.2745 0.027 0.5355 0.045 0.81 0.018 0.2475 0.018 0.4995 0.045 0.756 0.018 0.324 0.054 0.657 0.081 0.99 0.036 0.189 0.045 0.3735 0.063 0.5625 0.036 0.3555 0.09 0.702 0.1395 1.053 0.027 0.162 0.045 0.3195 0.063 0.4815l0.1755 1.053c0.036 0.162 0.054 0.324 0.09 0.486l0.2115 1.0035 0.1125 0.5175c0.072 0.315 0.1575 0.621 0.2295 0.927l0.1485 0.5895c0.081 0.2745 0.1665 0.5535 0.2565 0.828 0.054 0.2205 0.1215 0.45 0.2025 0.6705 0.072 0.2475 0.1485 0.4725 0.2385 0.72l0.2565 0.7425 0.2385 0.621 0.315 0.801 0.2295 0.5355c0.1215 0.2835 0.2475 0.5625 0.378 0.846 0.081 0.1665 0.1575 0.3195 0.2295 0.4905a36.495 36.495 0 0 0 1.1205 2.1105c0.1035 0.189 0.2205 0.3735 0.324 0.5625l0.414 0.6705c0.1665 0.2565 0.315 0.4905 0.4905 0.747l0.297 0.4365c0.2745 0.4095 0.5715 0.81 0.8685 1.1925l100.071 129.852c4.842 6.282 11.205 9.4275 17.55 9.4275 6.354 0 12.708-3.141 17.559-9.4275 9.684-12.5865 9.684-32.9805 0-45.5535l-57.726-74.8935h265.581c13.7115 0 24.822-14.4135 24.822-32.202 0.0045-17.766-11.097-32.193-24.8175-32.193zM721.196 283.4495a34.425 34.425 0 0 0-34.434-34.4295H235.2635a34.425 34.425 0 0 0-34.425 34.4295 34.425 34.425 0 0 0 34.425 34.425h451.4985a34.425 34.425 0 0 0 34.434-34.425zM547.3655 490.5935a34.425 34.425 0 0 0-34.425-34.4295H235.2635a34.425 34.425 0 0 0-34.425 34.4295 34.425 34.425 0 0 0 34.425 34.434h277.677a34.425 34.425 0 0 0 34.425-34.434zM235.2635 664.4195a34.425 34.425 0 0 0 0 68.8545h208.2555a34.4295 34.4295 0 0 0 0-68.8545H235.2635z" fill="#000000" p-id="9138"></path><path d="M547.64 942.659a34.7085 34.7085 0 0 0 0.837-69.4035v-0.027H153.098a22.257 22.257 0 0 1-22.2345-22.239V167.4035a22.257 22.257 0 0 1 22.2345-22.239h615.843a22.2615 22.2615 0 0 1 22.2345 22.239v409.527a34.4205 34.4205 0 0 0 34.416 34.425 34.416 34.416 0 0 0 34.434-34.425V167.4035c0-50.2335-40.86-91.098-91.089-91.098H153.098C102.8645 76.3055 62 117.17 62 167.4035v683.586c0 50.2335 40.8645 91.107 91.098 91.107h388.3725c2.0025 0.3555 4.068 0.5625 6.1695 0.5625z" fill="#000000" p-id="9139"></path></svg>