<?xml version="1.0" standalone="no"?><!DOCTYPE svg PUBLIC "-//W3C//DTD SVG 1.1//EN" "http://www.w3.org/Graphics/SVG/1.1/DTD/svg11.dtd"><svg t="1596795894589" class="icon" viewBox="0 0 1024 1024" version="1.1" xmlns="http://www.w3.org/2000/svg" p-id="10040" width="32" height="32" xmlns:xlink="http://www.w3.org/1999/xlink"><defs><style type="text/css"></style></defs><path d="M450.048 731.648l-48.128 27.136c-13.824 7.68-30.72-2.048-30.72-17.92v-88.064l455.168-455.168c3.584-3.584 8.704-3.584 12.8-1.024 4.096 3.072 4.608 9.216 2.048 13.312L450.048 731.648z" fill="#1AD6D1" p-id="10041"></path><path d="M849.92 104.448L142.848 308.224c-40.96 11.776-54.272 63.488-24.064 93.696l251.904 250.88 452.608-452.608c4.096-4.096 10.24-4.096 13.824 0 3.584 3.584 4.096 8.704 1.024 12.8L450.048 731.648l174.592 174.08c30.208 30.208 81.408 16.896 93.184-24.576L919.552 174.08c11.776-42.496-27.136-81.408-69.632-69.632z" fill="#1CFBFC" p-id="10042"></path></svg>